<?xml version="1.0" standalone="no"?>
<!DOCTYPE svg PUBLIC "-//W3C//DTD SVG 20010904//EN"
 "http://www.w3.org/TR/2001/REC-SVG-20010904/DTD/svg10.dtd">
<svg version="1.0" xmlns="http://www.w3.org/2000/svg"
 width="500.000000pt" height="500.000000pt" viewBox="0 0 500.000000 500.000000"
 preserveAspectRatio="xMidYMid meet">
<metadata>
Created by potrace 1.11, written by Peter Selinger 2001-2013
</metadata>
<g transform="translate(0.000000,500.000000) scale(0.100000,-0.100000)"
fill="#000000" stroke="none">
<path d="M3008 3703 c-110 -139 -121 -147 -251 -188 -177 -55 -169 -55 -272 4
-49 28 -99 51 -112 51 -38 0 -52 -36 -63 -170 -6 -69 -15 -135 -20 -146 -18
-46 -119 -78 -465 -149 -85 -18 -152 -38 -195 -60 -60 -30 -70 -32 -137 -28
-63 5 -73 3 -73 -11 0 -13 11 -16 61 -16 80 0 68 -19 -14 -22 l-62 -1 60 -7
60 -7 -57 -1 -58 -2 2 -72 2 -73 3 63 4 62 44 0 c25 0 45 -2 45 -4 0 -3 -5
-17 -10 -32 -19 -49 -15 -155 10 -228 39 -118 162 -226 285 -251 97 -20 191
-17 388 10 172 24 254 28 236 11 -2 -2 -54 -11 -115 -20 -61 -9 -147 -25 -190
-35 -44 -11 -96 -22 -117 -26 -43 -7 -105 -60 -131 -112 -22 -44 -21 -120 4
-160 32 -53 65 -68 146 -68 67 0 75 2 104 30 18 17 38 42 46 57 31 60 5 163
-55 210 l-32 24 38 12 c39 12 275 52 304 52 15 0 17 -24 21 -202 5 -217 14
-262 70 -344 30 -46 125 -92 214 -106 38 -5 78 -12 90 -14 20 -3 20 -8 17
-176 l-3 -173 -37 -10 c-58 -16 -50 -41 12 -37 81 4 76 -10 73 200 l-3 189
110 10 c61 6 111 11 111 10 1 -1 4 -106 7 -234 l5 -231 -43 -11 c-48 -12 -63
-27 -46 -44 8 -8 26 -8 67 1 32 6 59 14 61 16 3 2 4 78 2 168 -1 90 -3 205 -3
256 l-1 93 52 19 c115 40 230 120 284 195 25 34 39 45 59 45 41 0 91 39 118
93 19 37 26 67 29 140 4 83 2 96 -19 137 -33 62 -80 92 -137 88 l-45 -2 -22
94 c-12 52 -37 158 -57 235 -19 77 -47 194 -62 260 -90 409 -157 624 -213 688
-8 9 -28 17 -43 17 -24 0 -39 -12 -81 -67z m125 -30 c38 -86 92 -269 127 -428
38 -174 59 -262 114 -490 25 -99 57 -243 72 -320 29 -151 39 -175 61 -152 11
11 11 24 -1 81 -16 78 -10 86 52 70 54 -14 76 -51 80 -140 7 -134 -35 -224
-106 -224 -33 -1 -41 -7 -72 -51 -46 -67 -115 -121 -214 -168 -120 -58 -167
-66 -361 -65 -152 0 -176 3 -228 23 -74 29 -109 60 -136 116 -26 55 -40 186
-41 367 0 70 -4 138 -10 153 -6 15 -24 32 -46 41 -32 13 -49 13 -182 -6 -81
-11 -157 -23 -169 -25 -21 -5 -23 -2 -23 42 0 70 -27 234 -51 317 -24 82 -82
212 -106 238 -9 10 -14 20 -12 22 2 2 47 11 99 20 187 33 318 85 346 138 8 15
17 69 20 120 8 150 13 178 31 178 9 0 53 -22 99 -50 46 -27 95 -50 109 -50 34
0 247 64 304 92 28 13 60 42 90 81 71 93 102 127 116 127 7 0 24 -26 38 -57z
m-1423 -1153 c0 -5 -2 -10 -4 -10 -3 0 -8 5 -11 10 -3 6 -1 10 4 10 6 0 11 -4
11 -10z m175 -80 c4 -6 -6 -10 -22 -9 -25 0 -26 1 -8 9 11 5 21 9 22 9 1 1 5
-3 8 -9z"/>
<path d="M2563 3060 c-23 -9 -37 -45 -31 -76 1 -9 15 -26 31 -37 l27 -21 28
21 c35 26 41 74 13 102 -23 23 -34 24 -68 11z"/>
<path d="M2880 2326 c0 -29 5 -112 11 -184 11 -127 10 -132 -10 -158 -12 -15
-21 -33 -21 -40 0 -19 39 -18 46 1 9 22 21 18 28 -10 4 -17 13 -25 27 -25 19
0 21 4 16 30 -6 26 -4 30 17 30 51 0 41 36 -13 45 l-37 6 -13 157 c-15 183
-18 202 -37 202 -10 0 -14 -14 -14 -54z"/>
<path d="M2230 3538 c0 -23 3 -38 7 -35 9 10 10 77 1 77 -4 0 -8 -19 -8 -42z"/>
<path d="M2230 3458 c0 -23 3 -29 9 -19 8 12 4 51 -5 51 -2 0 -4 -15 -4 -32z"/>
<path d="M2220 3389 c0 -5 5 -7 10 -4 6 3 10 8 10 11 0 2 -4 4 -10 4 -5 0 -10
-5 -10 -11z"/>
<path d="M2200 3339 c-16 -29 -9 -29 19 -2 19 18 21 23 8 23 -9 0 -21 -9 -27
-21z"/>
<path d="M2125 3310 c-10 -11 -13 -20 -8 -20 13 0 38 29 31 35 -3 3 -13 -4
-23 -15z"/>
<path d="M2024 3275 c-10 -8 -14 -15 -8 -15 6 0 17 7 24 15 16 19 9 19 -16 0z"/>
<path d="M2078 3273 c7 -3 16 -2 19 1 4 3 -2 6 -13 5 -11 0 -14 -3 -6 -6z"/>
<path d="M1505 3140 c-3 -5 -1 -10 4 -10 6 0 11 5 11 10 0 6 -2 10 -4 10 -3 0
-8 -4 -11 -10z"/>
<path d="M1888 2383 c7 -3 16 -2 19 1 4 3 -2 6 -13 5 -11 0 -14 -3 -6 -6z"/>
<path d="M1878 2363 c6 -2 18 -2 25 0 6 3 1 5 -13 5 -14 0 -19 -2 -12 -5z"/>
<path d="M3243 1195 c-3 -9 -3 -18 0 -22 11 -10 57 7 57 22 0 20 -49 20 -57 0z"/>
<path d="M3253 1153 c-25 -10 -12 -24 19 -21 37 4 52 28 16 27 -12 0 -29 -3
-35 -6z"/>
<path d="M1780 1107 c0 -19 33 -47 53 -47 23 0 21 13 -6 38 -26 25 -47 29 -47
9z"/>
<path d="M1780 1047 c0 -23 37 -50 57 -42 16 6 15 9 -10 31 -32 27 -47 31 -47
11z"/>
</g>
</svg>
